<svg width="440" height="440" viewBox="0 0 440 440" fill="none" xmlns="http://www.w3.org/2000/svg">
<g clip-path="url(#clip0_302_704)">
<path d="M255.2 177.681L14.1944 200.48C14.1944 200.48 11.5285 200.484 11.392 203.33L0.182404 437.025C0.182404 437.025 0.18415 440.14 2.9848 439.875L243.99 417.075C243.99 417.075 246.657 417.08 246.793 414.226L258.002 180.531C258.149 177.479 255.2 177.681 255.2 177.681Z" fill="#117BDD"/>
<path d="M439.055 0.000537032L168.77 25.1434C168.77 25.1434 165.78 25.1475 165.627 28.2862L153.055 286C153.055 286 153.057 289.435 156.198 289.143L426.483 264C426.483 264 429.474 264.005 429.626 260.857L442.198 3.14337C442.362 -0.222094 439.055 0.000537032 439.055 0.000537032Z" fill="#117BDD"/>
<path d="M215.803 220L44 235.981C44 235.981 42.0996 235.985 42.0023 237.979L34.0115 401.791C34.0115 401.791 34.0127 403.974 36.0092 403.789L207.812 387.807C207.812 387.807 209.713 387.812 209.81 385.809L217.8 221.997C217.905 219.858 215.803 220 215.803 220Z" fill="#EAF3F5"/>
<path d="M387.2 53.1734L215.862 69.1119C215.862 69.1119 213.966 69.1149 213.869 71.1042L205.9 234.473C205.9 234.473 205.901 236.651 207.892 236.466L379.231 220.527C379.231 220.527 381.127 220.53 381.223 218.535L389.192 55.1657C389.296 53.0323 387.2 53.1734 387.2 53.1734Z" fill="#EAF3F5"/>
</g>
<defs>
<clipPath id="clip0_302_704">
<rect width="440" height="440" fill="white"/>
</clipPath>
</defs>
</svg>
